Coordinates
version=1
nRows=16
nColumns=42
inDegrees=yes

Units are S.I. units (second, meters, Newtons, ...)
If the header above contains a line with 'inDegrees', this indicates whether rotational values are in degrees (yes) or radians (no).

endheader
time	pelvis_tilt	pelvis_list	pelvis_rotation	pelvis_tx	pelvis_ty	pelvis_tz	hip_flexion_r	hip_adduction_r	hip_rotation_r	knee_angle_r	knee_angle_r_beta	ankle_angle_r	subtalar_angle_r	mtp_angle_r	hip_flexion_l	hip_adduction_l	hip_rotation_l	knee_angle_l	knee_angle_l_beta	ankle_angle_l	subtalar_angle_l	mtp_angle_l	lumbar_extension	lumbar_bending	lumbar_rotation	sh_tx_r	sh_ty_r	sh_tz_r	sh_plane_elev_r	sh_elev_r	sh_axial_rot_r	elbow_flex_r	pro_sup_r	sh_tx_l	sh_ty_l	sh_tz_l	sh_plane_elev_l	sh_elev_l	sh_axial_rot_l	elbow_flex_l	pro_sup_l
      3.03333330	     -5.32947976	     -0.51042744	     -1.14838319	      0.31296963	      0.95976509	     -0.02339643	      3.06658882	     -3.93578168	     -1.01188203	      1.83196010	      0.03197374	      2.67596327	     -2.77194516	     -7.49999987	      3.40584325	     -2.71209965	    -12.38332482	      2.06749137	      0.03608453	      6.36092026	     -6.10337876	     -7.49999987	      4.64518029	      2.40634165	     -5.83406005	     -0.01231595	     -0.01567618	     -0.00714428	    -10.58703192	      2.41017715	     -0.50727355	     29.72141374	    112.79678468	     -0.01885888	      0.02114606	     -0.00545315	     76.77452412	    118.02831072	    -11.40613311	      3.87867764	      2.68004216
      3.05000000	     -5.30864292	     -0.51764362	     -1.12701591	      0.31293136	      0.95932633	     -0.02327330	      3.05533010	     -3.90140530	     -0.91731223	      1.96157553	      0.03423595	      2.58105831	     -3.10968318	     -7.49999987	      3.34422787	     -2.74746918	    -12.32637102	      2.05728370	      0.03590637	      6.40579237	     -6.18195641	     -7.49999987	      4.60742089	      2.42206597	     -5.52155100	     -0.01271579	     -0.01576442	     -0.00714659	    -10.72061973	      2.37753782	     -0.48409093	     29.44396633	    112.48547741	     -0.01867353	      0.02088465	     -0.00545490	     77.24498535	    118.36722297	    -11.50563898	      4.10030734	      2.65742755
      3.06666670	     -5.30981243	     -0.51176720	     -1.09230029	      0.31295397	      0.95958140	     -0.02344737	      3.03690516	     -3.89774377	     -0.98828486	      1.97535682	      0.03447648	      2.69213792	     -2.90851313	     -7.49999987	      3.33258511	     -2.74932566	    -12.21009923	      2.04607770	      0.03571079	      6.32621260	     -6.35867682	     -7.49999987	      4.56654311	      2.50214696	     -5.51952528	     -0.01251588	     -0.01580153	     -0.00717094	    -11.13422239	      2.34417755	     -0.25848853	     29.46293259	    112.85995739	     -0.01815898	      0.02169233	     -0.00543166	     76.88276494	    118.36831737	     -9.63938214	      4.03222880	      2.74525020
      3.08333330	     -5.34199837	     -0.49298907	     -1.12893617	      0.31296545	      0.95919670	     -0.02323403	      3.11267246	     -3.90253686	     -0.85453552	      2.05737024	      0.03590788	      2.70314657	     -2.98604813	     -7.49999987	      3.32365166	     -2.73980467	    -12.25840476	      2.01990064	      0.03525392	      6.39301600	     -6.31047831	     -7.49999987	      4.59146880	      2.57172502	     -5.62059563	     -0.01201954	     -0.01594069	     -0.00716667	    -10.69707308	      2.38363765	     -0.57692359	     29.38773726	    112.83303514	     -0.01864839	      0.02150646	     -0.00541905	     76.67513494	    118.66600441	    -10.04006415	      4.13689401	      2.71008578
      3.10000000	     -5.50183792	     -0.52970162	     -1.14502868	      0.31255034	      0.95914749	     -0.02356567	      3.60376026	     -3.88872912	     -0.95837280	      2.68538147	      0.04686875	      3.05679940	     -2.90819876	     -7.49999987	      3.73551481	     -2.82008426	    -12.25544155	      2.51159893	      0.04383567	      6.72576767	     -6.40474348	     -7.49999987	      4.88231913	      3.00239642	     -5.47731799	     -0.01141528	     -0.01313001	     -0.00645911	     -8.33128044	      2.93789143	     -0.50832524	     28.90221961	    105.75996161	     -0.01644812	      0.01981075	     -0.00524976	     75.70181202	    119.12641735	    -11.11260355	      6.28305116	      5.89212316
      3.11666670	     -5.34767101	     -0.48971603	     -1.11266990	      0.31295748	      0.95914250	     -0.02318187	      3.15313032	     -3.88661051	     -0.84448335	      2.16060639	      0.03770970	      2.86592899	     -2.93530691	     -7.49999987	      3.31440900	     -2.73553461	    -12.26812503	      1.98008164	      0.03455894	      6.53858343	     -6.31593481	     -7.49999987	      4.50665629	      2.66680069	     -5.59064224	     -0.01208023	     -0.01604406	     -0.00715534	    -10.14988236	      2.47870031	     -1.01139825	     29.39673769	    112.70298696	     -0.01873643	      0.02044009	     -0.00541328	     76.95550994	    119.59643464	    -10.20062836	      4.31409147	      2.74484665
      3.13333330	     -5.29761374	     -0.50379829	     -1.10364923	      0.31294358	      0.96269487	     -0.02348972	      3.10620581	     -3.88041685	     -0.86986223	      2.15857612	      0.03767426	      2.87982401	     -2.76114697	     -7.49999987	      3.24843171	     -2.74691909	    -12.20413849	      1.91915275	      0.03349553	      6.46993741	     -6.51189624	     -7.49999987	      4.39184675	      2.76915372	     -5.28841684	     -0.01252964	     -0.01607570	     -0.00716498	    -11.15022757	      2.47166499	     -0.51950500	     29.52292976	    112.89145243	     -0.01874595	      0.01993553	     -0.00544882	     77.07938569	    119.68642922	    -10.04600347	      4.15226608	      2.80098185
      3.15000000	     -5.27871155	     -0.47608738	     -1.07768702	      0.31295924	      0.96203606	     -0.02335304	      3.03214466	     -3.89986259	     -0.84037769	      2.03763680	      0.03556347	      2.87618258	     -2.65884576	     -7.49999987	      3.21964099	     -2.70536418	    -12.23704414	      1.85187333	      0.03232129	      6.45142354	     -6.46728308	     -7.49999987	      4.35652634	      2.79639673	     -5.44210673	     -0.01198572	     -0.01618220	     -0.00718695	     -9.82718080	      2.60694827	     -1.15655947	     29.33014550	    112.53773911	     -0.01934083	      0.01937048	     -0.00545671	     76.89099716	    119.95199725	    -10.98123652	      4.17850485	      2.82913041
      3.16666670	     -5.22814888	     -0.45930479	     -1.09087755	      0.31285669	      0.95885458	     -0.02316683	      3.05083035	     -3.90162851	     -0.80902440	      2.10889221	      0.03680711	      2.90131398	     -2.67353692	     -7.49999987	      3.15468798	     -2.67442112	    -12.18218177	      1.83721570	      0.03206546	      6.46542780	     -6.58049954	     -7.49999987	      4.14701589	      2.86314165	     -5.24307686	     -0.01274160	     -0.01619722	     -0.00717293	    -10.29843291	      2.56200726	     -1.17152559	     29.58188848	    112.34317485	     -0.01966449	      0.01899019	     -0.00546939	     77.02929821	    120.56100286	    -11.32010675	      4.30245229	      2.76808857
      3.18333330	     -5.28186628	     -0.42197522	     -1.13460953	      0.31288160	      0.96179179	     -0.02326591	      3.17983834	     -3.89928844	     -0.85760592	      2.13898598	      0.03733235	      2.76753476	     -2.82280991	     -7.49999987	      3.19637436	     -2.63418573	    -12.31492866	      1.80063625	      0.03142703	      6.46286610	     -6.39618031	     -7.49999987	      4.17819121	      2.87832312	     -5.30240150	     -0.01220968	     -0.01623567	     -0.00718615	    -11.05723051	      2.48236253	     -0.53603097	     29.80625213	    112.78579747	     -0.01833503	      0.01850756	     -0.00543378	     76.91475437	    121.18337717	    -10.31815565	      4.51685941	      2.89516243
      3.20000000	     -5.32988832	     -0.39689293	     -1.17814507	      0.31287220	      0.95850351	     -0.02300954	      3.22125955	     -3.88970988	     -0.83121642	      2.03845444	      0.03557774	      2.81786712	     -2.73590971	     -7.49999987	      3.25546192	     -2.60489891	    -12.34110082	      1.84612116	      0.03222089	      6.46707926	     -6.46284679	     -7.49999987	      4.22210322	      2.92497752	     -5.35337208	     -0.01111919	     -0.01628292	     -0.00714458	    -10.33066884	      2.59911376	     -0.80955088	     29.76100611	    112.12994806	     -0.01706114	      0.01832808	     -0.00541922	     76.84802334	    121.81982825	    -10.75188230	      4.70825535	      2.85822742
      3.21666670	     -5.38178334	     -0.36210104	     -1.25090897	      0.31291785	      0.96091114	     -0.02277759	      3.27116601	     -3.88818664	     -0.83169872	      1.92428805	      0.03358516	      2.73072247	     -2.71445897	     -7.49999987	      3.28124529	     -2.57685124	    -12.46668279	      1.81558788	      0.03168799	      6.42721734	     -6.31237610	     -7.49999987	      4.28681043	      3.00023198	     -5.21127286	     -0.01027980	     -0.01634907	     -0.00711633	    -10.49657766	      2.69972223	     -0.57765669	     29.66363139	    112.49363462	     -0.01616130	      0.01788847	     -0.00541629	     76.84627698	    122.16470321	    -10.28851256	      4.67311858	      2.93580195
      3.23333330	     -5.66289234	     -0.39197177	     -1.34331182	      0.31231264	      0.96380195	     -0.02329436	      3.93950706	     -3.88123736	     -0.75376776	      2.48053372	      0.04329348	      2.90135828	     -2.79482635	     -7.49999987	      3.91441295	     -2.67557581	    -12.59913947	      2.47698176	      0.04323149	      6.71584983	     -6.26636472	     -7.49999987	      4.79816924	      3.63737339	     -5.45653992	     -0.00760344	     -0.01259253	     -0.00628089	     -8.41690441	      3.33985479	      0.38261687	     29.10039356	    104.64189612	     -0.01473164	      0.01583531	     -0.00521361	     74.64508846	    122.11042502	    -11.34098749	      7.44197140	      9.42243589
      3.25000000	     -5.32303214	     -0.30055125	     -1.33495816	      0.31289332	      0.96045507	     -0.02267160	      3.17436255	     -3.96637985	     -0.70838872	      1.67481921	      0.02923111	      2.59819922	     -2.65468072	     -7.49999987	      3.17132201	     -2.49118823	    -12.48880064	      1.75017799	      0.03054637	      6.27740496	     -6.33419949	     -7.49999987	      4.15377394	      3.16907161	     -5.06202194	     -0.01064876	     -0.01640744	     -0.00710604	    -10.00761241	      2.76227256	     -0.82190050	     29.43144613	    112.28262093	     -0.01615751	      0.01585197	     -0.00542624	     76.40469969	    122.62348739	     -9.68422836	      5.17662738	      3.00358919
      3.26666670	     -5.33649187	     -0.29283823	     -1.38652808	      0.31287753	      0.96062487	     -0.02270194	      3.19066570	     -3.95826527	     -0.66163739	      1.61143039	      0.02812477	      2.50039295	     -2.65410197	     -7.49999987	      3.16414678	     -2.47972719	    -12.59091792	      1.71842314	      0.02999214	      6.38106832	     -6.13231417	     -7.49999987	      4.14087173	      3.31395481	     -5.19286504	     -0.01000618	     -0.01653541	     -0.00708541	     -9.36692282	      2.85288558	     -1.13015442	     29.42189536	    112.05012856	     -0.01621110	      0.01478665	     -0.00540385	     75.89298350	    123.02317196	     -9.97525325	      5.30052656	      3.02648598
      3.28333330	     -5.33732170	     -0.28485414	     -1.44181690	      0.31282941	      0.96020829	     -0.02257934	      3.20566647	     -3.96001221	     -0.61696932	      1.56003433	      0.02722774	      2.49459564	     -2.75432260	     -7.49999987	      3.15275055	     -2.46557758	    -12.54522142	      1.71817467	      0.02998781	      6.37453717	     -6.30082689	     -7.49999987	      4.15220100	      3.42693335	     -5.26736382	     -0.00924675	     -0.01657773	     -0.00709335	     -9.07151091	      2.96133356	     -1.05949323	     29.49701849	    111.86150087	     -0.01614021	      0.01426486	     -0.00540217	     75.62038592	    123.26772274	     -9.92296320	      5.15553507	      3.00862123
